<svg xmlns="http://www.w3.org/2000/svg" width="30" height="30" fill="none" viewBox="0 0 30 30">
  <path fill="#fff" d="M26.626 3.592a2.571 2.571 0 0 0-.833.197c-.254.102-1.716.726-3.874 1.649a30089.486 30089.486 0 0 0-18.776 8.045l.04-.016s-.33.11-.665.344a1.847 1.847 0 0 0-.494.486c-.148.22-.255.53-.215.859.143 1.155 1.34 1.482 1.34 1.482l.005.003 5.34 1.828c.137.454 1.621 5.407 1.947 6.456.18.58.35.914.525 1.142.089.114.18.203.283.267.04.026.083.045.125.063h.002l.016.004-.014-.003.029.014c.02.006.03.006.055.012.612.213 1.118-.183 1.118-.183l.021-.017 3.281-3.043 5.325 4.152.067.03c.932.414 1.775.183 2.242-.197.467-.38.65-.87.65-.87l.02-.05L28.1 5.85c.1-.456.114-.85.02-1.207a1.402 1.402 0 0 0-.612-.838 1.553 1.553 0 0 0-.88-.214Zm.032 1.22a.55.55 0 0 1 .234.024c.028.017.04.015.067.115.027.1.041.312-.032.644l-.002.007-3.89 20.275c-.01.02-.09.208-.276.359-.189.154-.399.274-.956.04l-5.823-4.541-.164-.13-.004.004-1.741-1.306 9.786-11.514a.6.6 0 0 0-.79-.888l-14.16 9.44-5.35-1.831s-.532-.296-.557-.502c-.001-.011-.008 0 .02-.042a.786.786 0 0 1 .184-.171c.174-.121.373-.195.373-.195l.02-.007.02-.008s5.466-2.345 11.03-4.728a9645.73 9645.73 0 0 1 7.744-3.316 825.526 825.526 0 0 1 3.848-1.639c.15-.06.3-.085.419-.09Zm-6.49 6.464-7.421 8.732-.004.003a.609.609 0 0 0-.066.094.6.6 0 0 0-.078.23v.005l-.967 4.348c-.016-.047-.027-.064-.044-.12a1238.21 1238.21 0 0 1-1.901-6.304l10.48-6.988Zm-6.584 10.162 1.334 1.001-1.96 1.817.626-2.818Z"/>
</svg>
